<?xml version="1.0" encoding="utf-8"?>
<!-- Generator: Adobe Illustrator 15.0.0, SVG Export Plug-In . SVG Version: 6.00 Build 0)  -->
<!DOCTYPE svg PUBLIC "-//W3C//DTD SVG 1.1//EN" "http://www.w3.org/Graphics/SVG/1.1/DTD/svg11.dtd">
<svg version="1.1" id="Layer_1" xmlns="http://www.w3.org/2000/svg" xmlns:xlink="http://www.w3.org/1999/xlink" x="0px" y="0px"
	 width="1024px" height="1024px" viewBox="0 0 1024 1024" enable-background="new 0 0 1024 1024" xml:space="preserve">
<rect display="none" width="1067" height="1057"/>
<circle display="none" fill="#FFFFFF" stroke="#000000" stroke-width="100" stroke-miterlimit="10" cx="532.468" cy="529.842" r="359.287"/>
<circle display="none" cx="532" cy="530" r="80"/>
<circle display="none" cx="532" cy="786" r="64"/>
<circle display="none" cx="532" cy="274" r="64"/>
<circle display="none" cx="276" cy="530" r="64"/>
<circle display="none" cx="788" cy="530" r="64"/>
<circle display="none" cx="724" cy="722" r="64"/>
<circle display="none" cx="340" cy="722" r="64"/>
<circle display="none" cx="340" cy="338" r="64"/>
<circle display="none" cx="744.5" cy="307.5" r="35.834"/>
<g display="none">
	<path display="inline" d="M532,82c60.508,0,119.172,11.836,174.362,35.18c53.34,22.561,101.257,54.872,142.421,96.037
		c41.165,41.164,73.476,89.082,96.037,142.421C968.164,410.828,980,469.492,980,530s-11.836,119.172-35.18,174.362
		c-22.562,53.34-54.872,101.257-96.037,142.421c-41.164,41.165-89.081,73.476-142.421,96.037C651.172,966.164,592.508,978,532,978
		s-119.172-11.836-174.362-35.18c-53.34-22.562-101.257-54.872-142.421-96.037c-41.165-41.164-73.476-89.081-96.037-142.421
		C95.836,649.172,84,590.508,84,530s11.836-119.172,35.18-174.362c22.561-53.34,54.872-101.257,96.037-142.421
		c41.164-41.165,89.082-73.476,142.421-96.037C412.828,93.836,471.492,82,532,82 M532,18C249.23,18,20,247.23,20,530
		c0,282.77,229.23,512,512,512c282.77,0,512-229.23,512-512C1044,247.23,814.77,18,532,18L532,18z"/>
</g>
<rect x="615.324" y="268.804" transform="matrix(-0.7071 -0.7071 0.7071 -0.7071 827.265 1145.4226)" display="none" width="71.07" height="265.147"/>
<g>
	<path fill="#FFFFFF" d="M512,95.977c56.202,0,110.672,10.986,161.896,32.652c49.524,20.947,94.023,50.956,132.26,89.192
		c38.235,38.235,68.244,82.734,89.191,132.26C917.015,401.305,928,455.775,928,511.977c0,56.203-10.985,110.671-32.651,161.896
		c-20.947,49.525-50.956,94.023-89.191,132.26s-82.734,68.244-132.261,89.191C622.672,916.992,568.202,927.977,512,927.977
		s-110.672-10.984-161.896-32.65c-49.525-20.947-94.023-50.957-132.259-89.191c-38.236-38.236-68.245-82.734-89.192-132.262
		C106.986,622.648,96,568.18,96,511.977c0-56.202,10.986-110.672,32.652-161.897c20.947-49.525,50.956-94.024,89.192-132.259
		c38.235-38.236,82.734-68.245,132.259-89.192C401.328,106.963,455.798,95.977,512,95.977 M512-0.023c-282.77,0-512,229.23-512,512
		c0,282.769,229.23,512,512,512c282.77,0,512-229.23,512-512C1024,229.207,794.77-0.023,512-0.023L512-0.023z"/>
</g>
<path fill="#FFFFFF" d="M512,512.474V237.585c0,0-0.246-0.003-0.327-0.003c-151.595,0-274.528,122.892-274.528,274.486
	c0,151.594,122.871,274.487,274.465,274.487c151.594,0,274.477-122.893,274.477-274.486c0-49.836-13.207-96.568-36.424-136.854
	L512,512.474z"/>
</svg>
