<?xml version="1.0" encoding="utf-8"?>
<!-- Generator: Adobe Illustrator 15.0.0, SVG Export Plug-In  -->
<!DOCTYPE svg PUBLIC "-//W3C//DTD SVG 1.1//EN" "http://www.w3.org/Graphics/SVG/1.1/DTD/svg11.dtd" [
	<!ENTITY ns_flows "http://ns.adobe.com/Flows/1.0/">
]>
<svg version="1.1"
	 xmlns="http://www.w3.org/2000/svg" xmlns:xlink="http://www.w3.org/1999/xlink" xmlns:a="http://ns.adobe.com/AdobeSVGViewerExtensions/3.0/"
	 x="0px" y="0px" width="1024px" height="1024px" viewBox="20 18 1024 1024"
	 overflow="visible" enable-background="new 20 18 1024 1024" xml:space="preserve">
<defs>
</defs>
<rect display="none" width="1067" height="1057"/>
<circle display="none" fill="#FFFFFF" stroke="#000000" stroke-width="100" stroke-miterlimit="10" cx="532.468" cy="529.842" r="359.287"/>
<circle display="none" cx="532" cy="530" r="80"/>
<circle display="none" cx="532" cy="786" r="64"/>
<circle display="none" cx="532" cy="274" r="64"/>
<circle display="none" cx="276" cy="530" r="64"/>
<circle display="none" cx="788" cy="530" r="64"/>
<circle display="none" cx="724" cy="722" r="64"/>
<circle display="none" cx="340" cy="722" r="64"/>
<circle display="none" cx="340" cy="338" r="64"/>
<circle display="none" cx="744.5" cy="307.5" r="35.834"/>
<g display="none">
	<path display="inline" d="M532,82c60.508,0,119.172,11.836,174.362,35.18c53.34,22.561,101.257,54.872,142.421,96.037
		c41.165,41.164,73.476,89.082,96.037,142.421C968.164,410.828,980,469.492,980,530s-11.836,119.172-35.18,174.362
		c-22.562,53.34-54.872,101.257-96.037,142.421c-41.164,41.165-89.081,73.476-142.421,96.037C651.172,966.164,592.508,978,532,978
		s-119.172-11.836-174.362-35.18c-53.34-22.562-101.257-54.872-142.421-96.037c-41.165-41.164-73.476-89.081-96.037-142.421
		C95.836,649.172,84,590.508,84,530s11.836-119.172,35.18-174.362c22.561-53.34,54.872-101.257,96.037-142.421
		c41.164-41.165,89.082-73.476,142.421-96.037C412.828,93.836,471.492,82,532,82 M532,18C249.23,18,20,247.23,20,530
		c0,282.77,229.23,512,512,512c282.77,0,512-229.23,512-512C1044,247.23,814.77,18,532,18L532,18z"/>
</g>
<rect x="615.325" y="268.81" transform="matrix(0.7071 0.7071 -0.7071 0.7071 474.4545 -342.6649)" display="none" width="71.071" height="265.15"/>
<g>
	<path fill="#FFFFFF" d="M532,114c56.202,0,110.672,10.986,161.896,32.652c49.525,20.947,94.024,50.956,132.26,89.192
		c38.236,38.235,68.244,82.734,89.192,132.26C937.015,419.328,948,473.798,948,530s-10.985,110.672-32.651,161.896
		c-20.948,49.525-50.956,94.024-89.192,132.26c-38.235,38.236-82.734,68.244-132.26,89.192C642.672,935.015,588.202,946,532,946
		s-110.672-10.985-161.896-32.651c-49.526-20.948-94.024-50.956-132.26-89.192c-38.236-38.235-68.245-82.734-89.192-132.26
		C126.986,640.672,116,586.202,116,530s10.986-110.672,32.652-161.897c20.947-49.525,50.956-94.024,89.192-132.259
		c38.235-38.236,82.734-68.245,132.259-89.192C421.328,124.986,475.798,114,532,114 M532,18C249.23,18,20,247.23,20,530
		c0,282.77,229.23,512,512,512c282.77,0,512-229.23,512-512C1044,247.23,814.77,18,532,18L532,18z"/>
</g>
<path fill="#FFFFFF" d="M532,530.497V255.608c0,0-0.246-0.003-0.327-0.003c-151.595,0-274.528,122.892-274.528,274.486
	S380.016,804.578,531.61,804.578s274.477-122.892,274.477-274.486c0-49.836-13.207-96.569-36.424-136.855L532,530.497z"/>
</svg>
